# xmcd
#
# Track frame offsets:
#	150
#	10647
#	21122
#	32422
#	52117
#	63777
#	77672
#	89017
#	102027
#	116520
#
# Disc length: 1717 seconds
#
# Revision: 2
# Processed by: cddbd v1.5.2PL0 Copyright (c) Steve Scherf et al.
# Submitted via: EZCDAudioConverter 6.0.5.1
#
DISCID=6d06b30a
DTITLE=Marty Robbins - Reflections
DYEAR=1991
DGENRE=Country
TTITLE0=Bouquet Of Roses
TTITLE1=The Things That I Don't Know
TTITLE2=Begging To You
TTITLE3=El Paso
TTITLE4=Lovesick Blues
TTITLE5=The Hands You're Holding Now
TTITLE6=Are You Sincere
TTITLE7=Devil Woman
TTITLE8=Don't Worry
TTITLE9=Tonight Carmen
EXTD=
EXTT0=
EXTT1=
EXTT2=
EXTT3=
EXTT4=
EXTT5=
EXTT6=
EXTT7=
EXTT8=
EXTT9=
PLAYORDER=
